<?xml version="1.0" encoding="utf-8"?>
<!-- Generator: Adobe Illustrator 22.1.0, SVG Export Plug-In . SVG Version: 6.00 Build 0)  -->
<svg version="1.1" id="圖層_1" xmlns="http://www.w3.org/2000/svg" xmlns:xlink="http://www.w3.org/1999/xlink" x="0px" y="0px"
	 viewBox="0 0 200 28" style="enable-background:new 0 0 200 28;" xml:space="preserve">
<style type="text/css">
	.st0{fill:#89C542;}
	.st1{fill:#5A5D62;}
</style>
<g id="XMLID_1_">
	<path id="XMLID_14_" class="st0" d="M90.7,15.4"/>
	<g id="XMLID_11_">
		<rect id="XMLID_13_" x="37.5" y="0.8" class="st0" width="6.4" height="5"/>
		<polygon id="XMLID_12_" class="st1" points="37.5,5.5 43.9,5.5 44,26.5 37.6,26.5 		"/>
	</g>
	<path id="XMLID_10_" class="st0" d="M86.2,5.8c-1.5-0.1-2.7-0.1-4-0.1h-0.1c-1.8,0-3.4,0.3-4.7,1c-1.5,0.7-2.5,1.5-3.2,2.6
		s-1.1,2.5-1.1,4.1V18c0,1.2,0.1,2.4,0.3,3.4c0.2,1.2,0.6,2.2,1.3,3c0.7,0.9,1.7,1.6,3.1,2.1c1.3,0.5,2.9,0.7,5,0.7s3.7-0.2,5-0.7
		c1.4-0.5,2.4-1.2,3.1-2.1s1.1-1.9,1.3-3c0.2-1,0.3-2.2,0.3-3.4L92.3,1h-6L86.2,5.8z M86.2,18.2c0,0.7,0,1.4-0.1,2
		c0,0.5-0.2,0.9-0.4,1.3c-0.2,0.3-0.4,0.5-0.8,0.7c-0.3,0.1-0.9,0.3-2.2,0.3c-1.2,0-1.9-0.2-2.2-0.3c-0.4-0.2-0.7-0.4-0.9-0.7
		c-0.2-0.4-0.4-0.8-0.4-1.4c-0.1-0.7-0.1-1.4-0.1-2.2v-4.5c0-0.7,0.1-1.1,0.4-1.7c0.2-0.4,0.6-0.8,1.1-1s1.3-0.3,2.5-0.4
		c0.1,0,0.2,0,0.3,0c0.6,0,1.5,0,2.7,0.2L86.2,18.2L86.2,18.2z"/>
	<polygon id="XMLID_9_" class="st0" points="109.8,5.5 105.4,17.8 101,5.5 94.4,5.5 102.9,26.5 107.9,26.5 116.5,5.5 	"/>
	<path id="XMLID_8_" class="st0" d="M153.8,7.1c-0.9-0.6-2-1.1-3.2-1.4c-3.1-0.8-7.1-0.5-11.5,0.7l-0.9,0.2v19.8h6V9.8
		c0.7-0.1,1.3-0.1,1.9-0.1c1.6,0,2.8,0.3,3.6,0.9c0.8,0.5,1.1,1.3,1.1,2.2v13.7h6V12.7c0-1.2-0.3-2.3-0.8-3.2
		C155.5,8.5,154.7,7.7,153.8,7.1z"/>
	<path id="XMLID_7_" class="st0" d="M177.2,14.5c0,0,0.1-0.7,0.1-1c0-1.7-0.1-2.8-0.4-3.7c-0.3-1-0.8-1.8-1.6-2.5
		c-0.7-0.7-1.8-1.2-3-1.5s-2.6-0.5-4.3-0.5c-1.8,0-3.2,0.2-4.4,0.5c-1.2,0.4-2.2,0.9-2.9,1.6s-1.2,1.5-1.5,2.5
		c-0.2,0.8-0.4,1.4-0.5,2.4v5.3c0,1.2,0.1,2.3,0.2,3.3c0.2,1.1,0.6,2.1,1.2,2.9c0.7,0.9,1.7,1.6,2.9,2c1.2,0.5,2.8,0.7,4.8,0.7
		s3.5-0.2,4.7-0.5c1.3-0.4,2.3-0.9,3-1.7c0.7-0.7,1.1-1.6,1.3-2.6c0.2-0.9,0.3-1.8,0.3-2.9h-6c0,0.5,0,1-0.1,1.5
		c-0.1,0.3-0.2,0.6-0.4,0.9c-0.2,0.2-0.4,0.4-0.8,0.5c-0.3,0.1-0.9,0.2-2,0.2c-1.2,0-1.8-0.2-2.1-0.3c-0.4-0.2-0.7-0.4-0.8-0.7
		c-0.2-0.4-0.3-0.8-0.3-1.3l0,0c0-0.6,0-1.3,0-2.1v-4.3c0-0.6,0-1.1,0.1-1.6c0.1-0.4,0.2-0.7,0.4-1c0.2-0.2,0.4-0.4,0.8-0.6
		c0.3-0.1,0.9-0.2,1.9-0.2c1.1,0,1.7,0.1,2,0.2c0.4,0.1,0.7,0.3,0.8,0.5c0.2,0.2,0.3,0.5,0.4,0.9c0.1,0.4,0.1,1.4,0.1,2v1.1
		C171.1,14.5,177.2,14.5,177.2,14.5z"/>
	<path id="XMLID_6_" class="st0" d="M198,14.5c0-1.3-0.1-2.4-0.3-3.5s-0.7-2.1-1.4-3s-1.7-1.5-3-2c-1.2-0.5-2.7-0.7-4.6-0.7
		c-2,0-3.6,0.2-4.9,0.7c-1.3,0.5-2.3,1.2-3,2s-1.1,1.8-1.2,3c-0.2,1-0.2,2.1-0.2,3.3v3.4c0,1.2,0.1,2.3,0.3,3.3
		c0.2,1.1,0.6,2.1,1.2,2.9c0.7,0.9,1.7,1.6,2.9,2c1.2,0.5,2.8,0.7,4.9,0.7c1.7,0,3.1-0.2,4.3-0.5s2.2-0.8,3-1.5
		c0.8-0.6,1.3-1.4,1.6-2.3c0.3-0.8,0.4-1.7,0.4-2.7h-6c0,0.8-0.2,1.4-0.6,1.8c-0.2,0.2-0.9,0.6-2.7,0.6c-1.2,0-1.8-0.2-2.1-0.3
		c-0.4-0.2-0.6-0.4-0.8-0.7c-0.2-0.4-0.3-0.8-0.4-1.4c0-0.6-0.1-1.3-0.1-2H198V14.5z M185.3,13.4c0-0.4,0-0.9,0.1-1.2
		c0-0.5,0.2-0.9,0.4-1.3c0.2-0.3,0.4-0.5,0.8-0.7c0.3-0.1,0.9-0.3,2.1-0.3c1.1,0,1.7,0.1,2,0.3c0.4,0.1,0.6,0.3,0.8,0.6
		c0.2,0.3,0.4,0.8,0.5,1.4c0.1,0.4,0.1,0.8,0.1,1.3h-6.8L185.3,13.4L185.3,13.4z"/>
	<path id="XMLID_5_" class="st0" d="M135.8,12.7c0-0.9-0.1-1.7-0.3-2.5c-0.3-0.9-0.7-1.7-1.5-2.5c-0.7-0.7-1.7-1.3-3-1.7
		c-1.2-0.4-2.8-0.6-4.8-0.6c-1.5,0-2.9,0.2-4,0.5c-1.2,0.3-2.1,0.8-2.9,1.4c-0.8,0.6-1.3,1.3-1.7,2.1c-0.4,0.8-0.5,1.6-0.5,2.5h5.7
		c0-1.1,0.4-2,3.1-2c1.3,0,2.1,0.2,2.4,0.3c0.5,0.2,0.9,0.4,1.1,0.7c0.2,0.3,0.4,0.6,0.4,0.9c0.1,0.4,0.1,0.8,0.1,1.1
		c-1.6-0.1-2.9-0.1-4.3-0.1h-0.1c-1.7,0-3.3,0.3-4.6,0.8c-1.5,0.5-2.5,1.2-3.2,2.1s-1.1,2-1.1,3.3v0.2l0,0c0,0.9,0.1,1.8,0.3,2.6
		c0.2,1,0.7,1.9,1.3,2.6c0.7,0.7,1.7,1.3,3,1.7s2.9,0.6,4.9,0.6s3.6-0.2,4.9-0.6c1.3-0.4,2.4-1,3.1-1.8c0.7-0.7,1.1-1.6,1.3-2.6
		c0.1-0.7,0.2-1.4,0.3-2.2l0,0v-0.3c0-0.1,0-0.2,0-0.3l0,0L135.8,12.7L135.8,12.7z M129.8,19.2c0,0.6,0,1.1-0.1,1.6
		c0,0.4-0.2,0.7-0.3,0.9c-0.2,0.2-0.4,0.4-0.8,0.5c-0.3,0.1-1,0.3-2.3,0.3c-1.2,0-1.9-0.1-2.2-0.3c-0.4-0.2-0.7-0.3-0.9-0.6
		c-0.2-0.3-0.3-0.6-0.4-1c0-0.5-0.1-1-0.1-1.6c0-0.5,0.1-0.8,0.4-1.2c0.2-0.3,0.6-0.6,1.1-0.8c0.5-0.2,1.3-0.3,2.5-0.3
		c0.5,0,1.8,0,3.1,0.2L129.8,19.2L129.8,19.2z"/>
	<polyline id="XMLID_4_" class="st1" points="15.6,5.5 11.7,17.5 8,5.5 2,5.5 9.4,26.5 14,26.5 18.7,13.4 23.4,26.5 27.9,26.5 
		35.5,5.5 29.5,5.5 25.7,17.5 21.5,5.5 	"/>
	<path id="XMLID_3_" class="st1" d="M73.2,26.4L63.5,0.9h-6.9L45.9,26.5h6.6l2.7-6.6h9.2 M57.5,14.3l2.4-5.7l2,5.7H57.5z"/>
	<path id="XMLID_2_" class="st0" d="M64.2,20.2l2.9,6.7h7.3l-10.5-26h-7.4"/>
</g>
</svg>
